<?xml version="1.0" encoding="UTF-8" standalone="no"?>
<svg
   xmlns:dc="http://purl.org/dc/elements/1.1/"
   xmlns:cc="http://creativecommons.org/ns#"
   xmlns:rdf="http://www.w3.org/1999/02/22-rdf-syntax-ns#"
   xmlns:svg="http://www.w3.org/2000/svg"
   xmlns="http://www.w3.org/2000/svg"
   id="svg4574"
   version="1.1"
   viewBox="0 0 8.4666665 8.466667"
   height="32"
   width="32">
  <defs
     id="defs4568">
    <filter
       style="color-interpolation-filters:sRGB"
       id="filter1125"
       x="-0.060353082"
       width="1.1207062"
       y="-0.059558593"
       height="1.1191171">
      <feGaussianBlur
         stdDeviation="0.045458774"
         id="feGaussianBlur1127" />
    </filter>
    <filter
       style="color-interpolation-filters:sRGB"
       id="filter1129"
       x="-0.060353082"
       width="1.1207062"
       y="-0.059558593"
       height="1.1191171">
      <feGaussianBlur
         stdDeviation="0.045458774"
         id="feGaussianBlur1131" />
    </filter>
    <filter
       style="color-interpolation-filters:sRGB"
       id="filter1121"
       x="-0.060353082"
       width="1.1207062"
       y="-0.059558593"
       height="1.1191171">
      <feGaussianBlur
         stdDeviation="0.045458774"
         id="feGaussianBlur1123" />
    </filter>
    <filter
       style="color-interpolation-filters:sRGB"
       id="filter1125-0"
       x="-0.060353082"
       width="1.1207062"
       y="-0.059558593"
       height="1.1191171">
      <feGaussianBlur
         stdDeviation="0.045458774"
         id="feGaussianBlur1127-9" />
    </filter>
    <filter
       style="color-interpolation-filters:sRGB"
       id="filter1129-5"
       x="-0.060353082"
       width="1.1207062"
       y="-0.059558593"
       height="1.1191171">
      <feGaussianBlur
         stdDeviation="0.045458774"
         id="feGaussianBlur1131-6" />
    </filter>
    <filter
       style="color-interpolation-filters:sRGB"
       id="filter1121-9"
       x="-0.060353082"
       width="1.1207062"
       y="-0.059558593"
       height="1.1191171">
      <feGaussianBlur
         stdDeviation="0.045458774"
         id="feGaussianBlur1123-3" />
    </filter>
    <filter
       style="color-interpolation-filters:sRGB"
       id="filter1125-0-1"
       x="-0.060353082"
       width="1.1207062"
       y="-0.059558593"
       height="1.1191171">
      <feGaussianBlur
         stdDeviation="0.045458774"
         id="feGaussianBlur1127-9-9" />
    </filter>
    <filter
       style="color-interpolation-filters:sRGB"
       id="filter942"
       x="-0.060353082"
       width="1.1207062"
       y="-0.059558593"
       height="1.1191171">
      <feGaussianBlur
         stdDeviation="0.045458774"
         id="feGaussianBlur940" />
    </filter>
    <filter
       style="color-interpolation-filters:sRGB"
       id="filter946"
       x="-0.060353082"
       width="1.1207062"
       y="-0.059558593"
       height="1.1191171">
      <feGaussianBlur
         stdDeviation="0.045458774"
         id="feGaussianBlur944" />
    </filter>
    <filter
       style="color-interpolation-filters:sRGB"
       id="filter950"
       x="-0.060353082"
       width="1.1207062"
       y="-0.059558593"
       height="1.1191171">
      <feGaussianBlur
         stdDeviation="0.045458774"
         id="feGaussianBlur948" />
    </filter>
    <filter
       style="color-interpolation-filters:sRGB"
       id="filter954"
       x="-0.060353082"
       width="1.1207062"
       y="-0.059558593"
       height="1.1191171">
      <feGaussianBlur
         stdDeviation="0.045458774"
         id="feGaussianBlur952" />
    </filter>
  </defs>
  <metadata
     id="metadata4571">
    <rdf:RDF>
      <cc:Work
         rdf:about="">
        <dc:format>image/svg+xml</dc:format>
        <dc:type
           rdf:resource="http://purl.org/dc/dcmitype/StillImage" />
        <dc:title></dc:title>
      </cc:Work>
    </rdf:RDF>
  </metadata>
  <path
     style="opacity:1;vector-effect:none;fill:#ffffff;fill-opacity:1;stroke:none;stroke-width:4.19842052;stroke-linecap:butt;stroke-linejoin:miter;stroke-miterlimit:4;stroke-dasharray:none;stroke-dashoffset:0;stroke-opacity:1;paint-order:fill markers stroke;filter:url(#filter1125-0-1)"
     d="m -85.298828,-3.1015625 -13.824219,7.6308594 a 13.007382,11.520739 0 0 1 4.400391,6.4589841 l 14.029297,-7.6562498 a 13.007382,11.520739 0 0 1 -4.605469,-6.4335937 z m -9.445313,19.0058595 a 13.007382,11.520739 0 0 1 -4.470703,6.412109 l 13.884766,7.664063 a 13.007382,11.520739 0 0 1 4.53125,-6.46875 z"
     transform="matrix(0.12558981,0,0,0.12649072,15.626966,2.5532376)"
     id="path907-2" />
  <path
     style="opacity:1;vector-effect:none;fill:none;fill-opacity:1;stroke:#ffffff;stroke-width:0.31205264;stroke-linecap:butt;stroke-linejoin:miter;stroke-miterlimit:4;stroke-dasharray:none;stroke-dashoffset:0;stroke-opacity:1;paint-order:fill markers stroke;filter:url(#filter1125-0)"
     d="m -22.088331,83.990189 a 0.90385658,0.9159137 0 0 1 -0.903856,0.915913 0.90385658,0.9159137 0 0 1 -0.903857,-0.915913 0.90385658,0.9159137 0 0 1 0.903857,-0.915914 0.90385658,0.9159137 0 0 1 0.903856,0.915914 z"
     transform="matrix(1.8073604,0,0,1.5910522,43.690363,-129.38572)"
     id="path905" />
  <path
     style="opacity:1;vector-effect:none;fill:none;fill-opacity:1;stroke:#ffffff;stroke-width:0.31205264;stroke-linecap:butt;stroke-linejoin:miter;stroke-miterlimit:4;stroke-dasharray:none;stroke-dashoffset:0;stroke-opacity:1;paint-order:fill markers stroke;filter:url(#filter1125-0)"
     d="m -19.671188,85.507889 a 0.90385658,0.9159137 0 0 1 -0.903857,0.915913 0.90385658,0.9159137 0 0 1 -0.903856,-0.915913 0.90385658,0.9159137 0 0 1 0.903856,-0.915914 0.90385658,0.9159137 0 0 1 0.903857,0.915914 z"
     transform="matrix(1.8073604,0,0,1.5910522,43.690363,-129.38572)"
     id="path903" />
  <path
     style="opacity:1;vector-effect:none;fill:none;fill-opacity:1;stroke:#ffffff;stroke-width:0.31205264;stroke-linecap:butt;stroke-linejoin:miter;stroke-miterlimit:4;stroke-dasharray:none;stroke-dashoffset:0;stroke-opacity:1;paint-order:fill markers stroke;filter:url(#filter1125-0)"
     d="m -19.671188,82.472481 a 0.90385658,0.9159137 0 0 1 -0.903857,0.915913 0.90385658,0.9159137 0 0 1 -0.903856,-0.915913 0.90385658,0.9159137 0 0 1 0.903856,-0.915914 0.90385658,0.9159137 0 0 1 0.903857,0.915914 z"
     transform="matrix(1.8073604,0,0,1.5910522,43.690363,-129.38572)"
     id="path815-2" />
</svg>
